<?xml version="1.0" standalone="no"?>
<!DOCTYPE svg PUBLIC "-//W3C//DTD SVG 20010904//EN"
 "http://www.w3.org/TR/2001/REC-SVG-20010904/DTD/svg10.dtd">
<svg version="1.0" xmlns="http://www.w3.org/2000/svg"
 width="308.000000pt" height="298.000000pt" viewBox="0 0 308.000000 298.000000"
 preserveAspectRatio="xMidYMid meet">

<g transform="translate(0.000000,298.000000) scale(0.100000,-0.100000)"
fill="#000000" stroke="none">
<path d="M1228 2181 c-210 -67 -353 -278 -336 -494 5 -55 27 -138 88 -331 28
-86 76 -160 155 -234 121 -116 294 -180 450 -169 157 12 276 62 382 160 75 70
125 144 159 234 23 60 40 163 27 163 -3 0 -34 -14 -69 -30 -40 -20 -87 -33
-127 -37 -60 -5 -66 -8 -80 -37 -26 -55 -96 -124 -154 -152 -43 -22 -75 -29
-139 -32 -76 -4 -88 -2 -148 26 -159 74 -243 243 -203 405 31 126 107 213 223
257 92 34 245 21 229 -19 -24 -57 -102 -297 -99 -300 2 -2 61 6 132 17 70 12
131 22 135 22 4 0 7 14 7 30 0 17 -1 30 -2 30 -2 0 -40 -6 -86 -14 -47 -8 -85
-9 -88 -4 -9 14 28 98 48 109 12 6 18 21 18 44 0 44 20 87 37 80 47 -19 47
-19 39 1 -18 48 -75 130 -118 169 l-48 43 23 15 c12 8 19 18 15 22 -4 4 -43
11 -88 16 -45 5 -101 14 -123 19 -68 15 -196 11 -259 -9z"/>
<path d="M1498 1860 c-69 -21 -147 -92 -190 -172 -17 -33 -22 -59 -22 -113 0
-92 29 -160 96 -220 56 -51 107 -69 190 -69 77 0 180 51 222 111 l29 42 -24
20 c-28 24 -62 27 -79 6 -16 -19 -4 -52 20 -58 31 -8 24 -25 -26 -57 -71 -45
-214 -54 -214 -13 0 11 -6 14 -22 9 -32 -8 -93 37 -125 91 -66 114 -20 307 92
382 36 24 128 41 137 25 3 -5 -15 -80 -39 -167 -25 -87 -43 -160 -42 -161 2
-2 51 3 109 10 58 7 127 13 153 14 l49 0 -6 -32 c-5 -31 -4 -30 15 10 11 24
18 46 15 50 -4 3 -41 0 -84 -6 -42 -7 -97 -14 -122 -18 -25 -3 -57 -7 -72 -10
-37 -6 -37 1 17 175 24 80 42 148 39 153 -6 10 -80 9 -116 -2z"/>
<path d="M1835 1760 c-7 -12 2 -30 16 -30 5 0 9 9 9 20 0 21 -15 27 -25 10z"/>
<path d="M2468 1704 c-24 -12 -48 -42 -48 -58 0 -3 27 11 60 31 33 19 60 37
60 39 0 10 -48 2 -72 -12z"/>
<path d="M1427 1676 c-9 -22 19 -42 37 -26 19 15 10 40 -14 40 -10 0 -20 -6
-23 -14z"/>
<path d="M2517 1675 c-15 -11 -16 -16 -4 -38 13 -25 42 -24 35 1 -2 6 6 18 17
27 19 16 19 16 1 10 -11 -3 -22 -1 -25 4 -4 5 -13 4 -24 -4z"/>
<path d="M2583 1644 c-7 -7 -13 -18 -13 -24 0 -6 -15 -17 -33 -25 -18 -7 -41
-23 -51 -34 -18 -20 -18 -20 6 -26 55 -14 112 37 106 93 -2 25 -5 27 -15 16z"/>
<path d="M2443 1620 c-3 -11 -9 -17 -14 -14 -19 11 -8 -24 12 -42 22 -19 22
-19 11 3 -10 18 -9 20 6 16 23 -6 44 19 36 41 -9 23 -45 20 -51 -4z"/>
<path d="M739 1584 c-17 -21 0 -49 32 -49 27 0 37 28 19 50 -16 19 -34 19 -51
-1z"/>
<path d="M1372 1518 c-32 -32 0 -84 37 -61 22 14 25 38 6 57 -20 19 -27 20
-43 4z"/>
<path d="M1565 1461 c-9 -16 3 -31 26 -31 14 0 19 6 17 17 -4 20 -33 29 -43
14z"/>
<path d="M1365 673 c-40 -11 -45 -23 -44 -107 0 -51 -7 -115 -21 -173 -12 -51
-19 -97 -15 -103 3 -5 17 -10 30 -10 18 0 26 7 29 23 36 189 46 248 46 276 0
32 1 32 43 29 l42 -3 -1 -50 c-1 -27 -3 -84 -4 -126 -3 -92 13 -134 50 -134
28 0 28 1 15 126 -10 86 1 154 26 178 15 13 18 25 13 45 -5 21 -12 26 -39 26
-17 0 -59 2 -91 4 -32 3 -68 2 -79 -1z"/>
<path d="M1663 669 l-33 -10 0 -82 c0 -47 -9 -118 -21 -167 -28 -119 -28 -124
0 -128 33 -5 44 10 52 70 3 29 15 99 25 156 l19 103 40 -3 c38 -3 40 -5 38
-33 -7 -93 -7 -224 0 -247 8 -32 43 -46 63 -26 11 10 11 22 3 52 -6 22 -9 81
-7 132 3 80 6 96 25 113 20 19 22 55 4 65 -16 10 -180 14 -208 5z"/>
</g>
</svg>
