<?xml version="1.0" standalone="no"?>
<!DOCTYPE svg PUBLIC "-//W3C//DTD SVG 20010904//EN"
 "http://www.w3.org/TR/2001/REC-SVG-20010904/DTD/svg10.dtd">
<svg version="1.0" xmlns="http://www.w3.org/2000/svg"
 width="24.000000pt" height="24.000000pt" viewBox="0 0 24.000000 24.000000"
 preserveAspectRatio="xMidYMid meet">

<g transform="translate(0.000000,24.000000) scale(0.100000,-0.100000)"
fill="#000000" stroke="none">
<path d="M123 177 c-45 -18 -85 -35 -89 -39 -4 -4 9 -15 29 -23 26 -10 41 -26
51 -50 18 -42 23 -43 37 -7 35 89 58 152 56 151 -1 0 -39 -15 -84 -32z m47
-12 c0 -2 -7 -23 -16 -44 l-16 -40 -28 27 -28 27 36 17 c38 18 52 22 52 13z"/>
</g>
</svg>
